<svg id="Layer_1" data-name="Layer 1" xmlns="http://www.w3.org/2000/svg" width="1486.0036" height="1485.9112" viewBox="0 0 1486.0036 1485.9112">
  <defs>
    <style>
      .cls-1 {
        fill: #fff;
      }
    </style>
  </defs>
  <g>
    <path class="cls-1" d="M1403.8119,243.6157,1242.3139,82.1194c-56.7224-56.7259-149.0264-56.7259-205.7523,0L903.27,215.4119,1270.52,582.66,1403.8119,449.368a145.4852,145.4852,0,0,0,0-205.7523Z"/>
    <path class="cls-1" d="M423.6615,711.8248l-43.5461,329.3383a57.5777,57.5777,0,0,0,64.6547,64.6528l329.3382-43.5478a57.5933,57.5933,0,0,0,33.1778-16.3725l381.7757-381.777L821.8123,296.87,440.0357,678.6471A57.5951,57.5951,0,0,0,423.6615,711.8248Z"/>
    <path class="cls-1" d="M1317.0811,894.2257a57.6,57.6,0,0,0-57.6006,57.5988v261.1333a118.3138,118.3138,0,0,1-118.1773,118.1809H272.9559a118.3138,118.3138,0,0,1-118.1773-118.1809v-868.31A118.3131,118.3131,0,0,1,272.9559,226.4705H534.0925a57.5988,57.5988,0,1,0,0-115.1975H272.9559c-128.6851,0-233.3785,104.6915-233.3785,233.3748v868.31c0,128.6869,104.6934,233.3785,233.3785,233.3785h868.3473c128.6851,0,233.3784-104.6916,233.3784-233.3785V951.8245A57.6,57.6,0,0,0,1317.0811,894.2257Z"/>
  </g>
</svg>
