<svg id="Layer_1" data-name="Layer 1" xmlns="http://www.w3.org/2000/svg" width="2409.1799" height="2409.1799" viewBox="0 0 2409.1799 2409.1799">
  <g>
    <path d="M1682.2505,779.4033H726.9314a45.2,45.2,0,0,0-45.0222,49.2106l85.8071,963.4194a141.9332,141.9332,0,0,0,141.38,129.34h591a141.9143,141.9143,0,0,0,141.36-129.34l85.8166-963.419A45.2006,45.2006,0,0,0,1682.2505,779.4033Zm-650.8573,874.886a57.7325,57.7325,0,0,1-57.7325,57.7325h0a57.7325,57.7325,0,0,1-57.7326-57.7325V1045.1107a57.7326,57.7326,0,0,1,57.7326-57.7325h0a57.7326,57.7326,0,0,1,57.7325,57.7325Zm230.93,0a57.7325,57.7325,0,0,1-57.7325,57.7325h0a57.7325,57.7325,0,0,1-57.7326-57.7325V1045.1107a57.7326,57.7326,0,0,1,57.7326-57.7325h0a57.7325,57.7325,0,0,1,57.7325,57.7325Zm230.9305,0a57.7326,57.7326,0,0,1-57.7326,57.7325h0a57.7325,57.7325,0,0,1-57.7325-57.7325V1045.1107a57.7325,57.7325,0,0,1,57.7325-57.7325h0a57.7326,57.7326,0,0,1,57.7326,57.7325Z"/>
    <path d="M1816.3951,660.6067a57.5958,57.5958,0,0,1-57.6,57.6H650.385a57.6,57.6,0,1,1,0-115.2h376.56a115.1979,115.1979,0,0,1,115.2-115.2h124.9a115.1956,115.1956,0,0,1,115.19,115.2h376.56a57.5976,57.5976,0,0,1,57.6,57.6Z"/>
  </g>
</svg>
